# xmcd
#
# Track frame offsets: 
#        150
#        17763
#        31575
#        42562
#        55487
#        70225
#        84013
#        94600
#        105625
#        115362
#        131125
#        145112
#        158712
#        172514
#        184627
#        198352
#        211752
#        226265
#        237490
#        255240
#
# Disc length: 3676 seconds
#
# Revision: 0
# Processed by: cddbd v1.5.2PL0 Copyright (c) Steve Scherf et al.
# Submitted via: ExactAudioCopy v0.99pb5
#
DISCID=fb0e5a14
DTITLE=Kiwi Country Favorites - CD1
DYEAR=2006
DGENRE=Country
TTITLE0=Dreamin' My Dreams
TTITLE1=The Old Water Wheel
TTITLE2=Do What You Do Do Well
TTITLE3=The Shearers Jamboree
TTITLE4=Blue Eyes Crying In The Rain
TTITLE5=Birthday Wishes
TTITLE6=Love Is Like A Butterfly
TTITLE7=Theres A Knot In My Lariat
TTITLE8=Have I Told You Lately That I Love You
TTITLE9=Mother, Pal and Sweetheart
TTITLE10=The Kingston Flyer
TTITLE11=Lovesick Blues
TTITLE12=Rockinover River
TTITLE13=Blackboard Of My Heart
TTITLE14=Talking In Your Sleep
TTITLE15=Ten Guitars
TTITLE16=Shanty Town
TTITLE17=Cattle Call
TTITLE18=Theres A Bridle Hanging On The Wall
TTITLE19=How Great Thou Art
EXTD=
EXTT0=
EXTT1=
EXTT2=
EXTT3=
EXTT4=
EXTT5=
EXTT6=
EXTT7=
EXTT8=
EXTT9=
EXTT10=
EXTT11=
EXTT12=
EXTT13=
EXTT14=
EXTT15=
EXTT16=
EXTT17=
EXTT18=
EXTT19=
PLAYORDER=
